<?xml version="1.0" encoding="utf-8"?>
<!-- Generator: Adobe Illustrator 21.1.0, SVG Export Plug-In . SVG Version: 6.00 Build 0)  -->
<svg version="1.1" id="Layer_1" xmlns="http://www.w3.org/2000/svg" xmlns:xlink="http://www.w3.org/1999/xlink" x="0px" y="0px"
	 viewBox="0 0 2434 2433.6" style="enable-background:new 0 0 2434 2433.6;" xml:space="preserve">
<style type="text/css">
	.st0{fill:#FFFFFF;}
	.st1{fill:#EC8457;}
	.st2{opacity:0.11;}
	.st3{fill:#8E9FAF;}
	.st4{fill:#586572;}
</style>
<g>
	<path class="st0" d="M1217,2433.6c-10.9,0-21.9-0.1-32.8-0.4l0.4-16.6c22,0.6,44.3,0.6,66.2,0l0.5,16.6
		C1239.9,2433.4,1228.4,2433.6,1217,2433.6z M1117.3,2429.6c-22.2-1.8-44.6-4.2-66.6-7.3l2.3-16.5c21.7,3,43.8,5.4,65.7,7.2
		L1117.3,2429.6z M1318.2,2429.5l-1.4-16.6c21.9-1.8,44-4.2,65.7-7.2l2.3,16.5C1362.8,2425.2,1340.4,2427.6,1318.2,2429.5z
		 M984.5,2411.4c-21.9-4.2-43.9-9.1-65.4-14.6l4.1-16.1c21.3,5.4,43,10.2,64.6,14.4L984.5,2411.4z M1451,2411.1l-3.2-16.3
		c21.5-4.2,43.3-9,64.5-14.4l4.1,16.1C1494.8,2401.9,1472.8,2406.9,1451,2411.1z M854.5,2378.7c-21.3-6.6-42.7-14-63.6-21.8
		l5.8-15.6c20.6,7.7,41.7,14.9,62.7,21.5L854.5,2378.7z M1580.9,2378.2l-5-15.9c20.9-6.6,42-13.8,62.5-21.5l5.8,15.6
		C1623.5,2364.3,1602.2,2371.6,1580.9,2378.2z M728.7,2331.7c-20.4-8.9-40.8-18.6-60.7-28.7l7.5-14.8c19.6,9.9,39.8,19.5,59.9,28.3
		L728.7,2331.7z M1706.3,2331.2l-6.7-15.2c20.1-8.8,40.1-18.3,59.7-28.2l7.5,14.8C1747,2312.7,1726.7,2322.3,1706.3,2331.2z
		 M608.9,2271c-19.3-11.1-38.5-23-57.2-35.2l9.1-13.9c18.4,12,37.4,23.7,56.4,34.7L608.9,2271z M1825.7,2270.7l-8.3-14.4
		c19-11,37.9-22.6,56.3-34.7l9.1,13.9C1864.1,2247.7,1844.9,2259.5,1825.7,2270.7z M496.6,2197.6c-17.9-13.2-35.8-27.1-52.9-41.2
		l10.6-12.8c16.9,14,34.5,27.6,52.2,40.7L496.6,2197.6z M1937.8,2197.3l-9.8-13.4c17.7-13,35.2-26.7,52.1-40.6l10.6,12.8
		C1973.4,2170.3,1955.7,2184.1,1937.8,2197.3z M393.1,2112.3c-16.4-15.1-32.5-30.8-48.1-46.7l11.9-11.6
		c15.3,15.7,31.3,31.3,47.4,46.1L393.1,2112.3z M2041.2,2112.1l-11.3-12.2c16.2-14.9,32.1-30.4,47.4-46.1l11.9,11.6
		C2073.7,2081.2,2057.5,2097,2041.2,2112.1z M299.6,2016.3c-14.6-16.8-29-34.2-42.7-51.7l13.1-10.2c13.5,17.3,27.6,34.4,42.1,51
		L299.6,2016.3z M2134.7,2016l-12.5-10.9c14.4-16.6,28.6-33.7,42.1-51l13.1,10.2C2163.6,1981.8,2149.3,1999.2,2134.7,2016z
		 M217.2,1910.6c-12.7-18.2-25.1-37.1-36.7-56l14.1-8.7c11.5,18.7,23.7,37.3,36.2,55.3L217.2,1910.6z M2217.1,1910.2l-13.6-9.5
		c12.5-18.1,24.7-36.7,36.3-55.4l14.1,8.7C2242.2,1873,2229.8,1891.9,2217.1,1910.2z M146.9,1796.7c-10.6-19.5-20.8-39.6-30.3-59.7
		l15-7.1c9.4,19.8,19.4,39.6,29.9,58.9L146.9,1796.7z M2287.5,1796l-14.6-7.9c10.5-19.3,20.6-39.2,29.9-59.1l15,7.1
		C2308.3,1756.2,2298.1,1776.4,2287.5,1796z M89.6,1675.7c-8.4-20.6-16.3-41.7-23.6-62.8l15.7-5.4c7.1,20.8,15,41.6,23.3,61.9
		L89.6,1675.7z M2344.9,1674.6l-15.4-6.3c8.3-20.4,16.1-41.3,23.2-62.1l15.7,5.4C2361.2,1632.8,2353.3,1653.9,2344.9,1674.6z
		 M45.9,1548.9c-6.1-21.4-11.6-43.3-16.5-65l16.2-3.6c4.8,21.4,10.3,43,16.2,64.1L45.9,1548.9z M2388.4,1547.7l-16-4.5
		c6-21.1,11.4-42.7,16.2-64.1l16.2,3.6C2400,1504.4,2394.5,1526.3,2388.4,1547.7z M16.6,1418.1c-3.7-21.9-6.7-44.3-9.2-66.4
		l16.5-1.8c2.4,21.8,5.5,43.9,9.1,65.5L16.6,1418.1z M2417.6,1416.8l-16.4-2.7c3.6-21.6,6.6-43.7,9-65.5l16.5,1.8
		C2424.3,1372.6,2421.2,1394.9,2417.6,1416.8z M1.9,1284.9c-1.2-22.2-1.9-44.7-1.9-67l16.6,0c0,22,0.6,44.2,1.9,66.1L1.9,1284.9z
		 M2432.2,1283.6l-16.6-0.9c1.2-21.9,1.8-44.1,1.8-66.1l0-2.6l16.6,0l0,2.6C2434,1238.9,2433.4,1261.4,2432.2,1283.6z M18.3,1151.8
		l-16.6-0.9c1.2-22.2,3-44.7,5.4-66.8l16.5,1.8C21.3,1107.6,19.5,1129.8,18.3,1151.8z M2415.5,1147.9c-1.2-21.9-3.1-44.1-5.5-65.9
		l16.5-1.8c2.5,22.1,4.4,44.6,5.6,66.8L2415.5,1147.9z M32.6,1020.3l-16.4-2.7c3.6-22,7.9-44.1,12.7-65.8l16.2,3.6
		C40.4,976.8,36.1,998.7,32.6,1020.3z M2400.8,1016.5c-3.6-21.7-7.9-43.5-12.7-64.9l16.2-3.7c4.9,21.7,9.2,43.8,12.9,65.8
		L2400.8,1016.5z M61.2,891.3l-16-4.5c6-21.4,12.7-43,19.9-64l15.7,5.4C73.8,848.9,67.2,870.1,61.2,891.3z M2371.7,887.6
		c-6-21.1-12.7-42.3-19.8-63.1l15.7-5.4c7.3,21,14,42.6,20.1,64L2371.7,887.6z M104,766l-15.4-6.2c8.4-20.6,17.4-41.3,26.9-61.5
		l15,7.1C121.2,725.3,112.3,745.7,104,766z M2328.6,762.6c-8.3-20.3-17.3-40.6-26.7-60.4l15-7.1c9.5,20.1,18.6,40.7,27,61.2
		L2328.6,762.6z M160.5,646.3l-14.6-7.9c10.6-19.6,21.9-39.1,33.6-58.1l14.2,8.7C182.1,607.7,170.9,626.9,160.5,646.3z
		 M2271.9,643.4c-10.5-19.2-21.6-38.5-33.2-57.1l14.1-8.7c11.7,18.9,23,38.4,33.6,57.9L2271.9,643.4z M229.8,533.5l-13.7-9.5
		c12.7-18.3,26-36.5,39.7-54.1l13.1,10.2C255.5,497.5,242.3,515.5,229.8,533.5z M2202.5,531c-12.5-18-25.7-35.9-39.3-53.2l13.1-10.2
		c13.7,17.5,27.1,35.7,39.8,53.9L2202.5,531z M311,429.1l-12.5-10.9c14.6-16.8,29.9-33.4,45.4-49.4l11.9,11.6
		C340.5,396.1,325.4,412.5,311,429.1z M2121,426.9c-14.4-16.5-29.5-32.9-44.9-48.6l11.9-11.6c15.5,15.9,30.8,32.5,45.5,49.2
		L2121,426.9z M403.1,334.2L391.9,322c16.4-15.1,33.3-29.9,50.5-44.1l10.6,12.8C436,304.7,419.3,319.3,403.1,334.2z M2028.7,332.2
		c-16.2-14.8-33-29.4-49.9-43.4l10.5-12.8c17.2,14.1,34.2,28.9,50.6,44L2028.7,332.2z M505.1,250l-9.9-13.4
		c17.9-13.2,36.4-26.1,55-38.3l9.1,13.9C541,224.3,522.7,237,505.1,250z M1926.5,248.2c-17.7-13-36-25.7-54.4-37.7l9.1-13.9
		c18.7,12.2,37.2,25,55.2,38.2L1926.5,248.2z M615.5,177.6l-8.3-14.4c19.2-11.2,39-21.9,58.8-32l7.5,14.8
		C654,155.9,634.5,166.5,615.5,177.6z M1815.7,175.9c-19.1-11-38.7-21.6-58.3-31.5l7.5-14.8c19.9,10,39.7,20.8,59.1,31.9
		L1815.7,175.9z M733.2,117.7l-6.7-15.2c20.3-9,41.2-17.5,62-25.3l5.9,15.6C773.8,100.5,753.2,108.9,733.2,117.7z M1697.5,116.2
		c-20.1-8.8-40.8-17.2-61.4-24.8l5.8-15.6c20.9,7.8,41.8,16.3,62.3,25.2L1697.5,116.2z M856.8,71.2l-5-15.9
		c21.2-6.7,42.9-12.8,64.5-18.3l4.1,16.1C899.2,58.5,877.8,64.6,856.8,71.2z M1573.4,70c-21-6.5-42.4-12.5-63.7-17.8l4-16.1
		c21.6,5.4,43.3,11.5,64.6,18.1L1573.4,70z M984.9,38.6l-3.2-16.3c21.8-4.3,44.1-8,66.1-11.1l2.3,16.5
		C1028.4,30.7,1006.5,34.4,984.9,38.6z M1445.1,37.9c-21.6-4.1-43.5-7.7-65.3-10.7l2.2-16.5c22.1,3,44.3,6.6,66.2,10.8L1445.1,37.9z
		 M1115.9,20.4l-1.4-16.6c22.2-1.8,44.7-3.1,66.9-3.7l0.5,16.6C1160,17.3,1137.7,18.6,1115.9,20.4z M1314.1,20.1
		c-21.8-1.7-44-2.9-66-3.5l0.4-16.6c22.3,0.6,44.8,1.8,66.9,3.5L1314.1,20.1z"/>
</g>
<path class="st1" d="M2230.1,1220.6c0,4.3,0,8.7-0.1,13c-0.2,13-0.6,26-1.2,38.8c-20.7,407.8-283.9,751.7-648.2,890.2
	c-3.8,1.5-7.7,2.9-11.5,4.3c-11.6,4.2-23.2,8.3-35,12.1c-3.9,1.3-7.9,2.5-11.8,3.8c-23.7,7.4-47.7,13.9-72.1,19.5
	c-8.1,1.9-16.3,3.7-24.5,5.3c-20.5,4.2-41.2,7.8-62.1,10.7c-4.2,0.6-8.4,1.1-12.6,1.7c-8.4,1.1-16.8,2-25.3,2.9
	c-4.2,0.4-8.5,0.8-12.7,1.2c-8.5,0.8-17,1.4-25.6,1.9c-21.4,1.3-43,2-64.7,2c-21.7,0-43.3-0.7-64.7-2c-8.6-0.5-17.1-1.2-25.6-1.9
	c-4.2-0.4-8.5-0.8-12.7-1.2c-8.5-0.9-16.9-1.8-25.3-2.9c-4.2-0.5-8.4-1.1-12.6-1.7c-20.9-2.9-41.6-6.5-62.1-10.7
	c-8.2-1.7-16.4-3.4-24.5-5.3c-24.4-5.6-48.4-12.1-72.1-19.5c-3.9-1.2-7.9-2.5-11.8-3.8c-11.8-3.8-23.4-7.8-35-12.1
	c-3.9-1.4-7.7-2.8-11.5-4.3c-364.4-138.5-627.6-482.4-648.2-890.2c-0.5-10.7-0.9-21.5-1.1-32.3c0-2.2-0.1-4.4-0.1-6.6
	c0-1.6,0-3.2-0.1-4.8c0-2.7,0-5.5,0-8.3c0-12,0.2-23.9,0.6-35.8c0.1-3.7,0.3-7.5,0.5-11.2c0.1-1.6,0.1-3.3,0.2-4.9
	c0.4-8.6,1-17.1,1.6-25.7c0.3-4.3,0.7-8.5,1.1-12.8c0.8-8.5,1.6-17,2.6-25.4c1-8.4,2-16.8,3.2-25.2c1.8-12.6,3.7-25,6-37.4
	c19.6-109.8,57-213.4,109.1-307.8c1.7-3.1,3.5-6.3,5.2-9.4c20.6-36.4,43.4-71.4,68.2-104.8c1.4-1.9,2.8-3.8,4.2-5.6
	c23.5-31.1,48.6-60.8,75.5-89c0.2-0.2,0.4-0.4,0.5-0.6c36.1-37.8,75-72.8,116.5-104.6c19.2-14.7,39-28.8,59.3-42.1
	c20.3-13.3,41-26,62.3-37.8c7.1-4,14.2-7.8,21.4-11.6c7.2-3.8,14.4-7.5,21.7-11.1c4.8-2.4,9.7-4.7,14.5-7.1
	c8.7-4.2,17.5-8.2,26.4-12.1c2.3-1,4.6-2,6.8-3c6.4-2.8,12.8-5.5,19.2-8.1c7.6-3.1,15.2-6.1,22.9-9c3.8-1.5,7.7-2.9,11.5-4.3
	c4.9-1.8,9.7-3.5,14.6-5.2c6.8-2.4,13.6-4.7,20.4-6.9c3.9-1.3,7.9-2.5,11.8-3.8c7.9-2.5,15.8-4.8,23.8-7.1
	c19.9-5.7,40.1-10.7,60.5-15.2c8.2-1.8,16.4-3.5,24.6-5c8.2-1.6,16.5-3.1,24.8-4.4c12.4-2.1,25-3.9,37.6-5.5
	c8.4-1.1,16.8-2,25.3-2.9c4.2-0.4,8.5-0.8,12.7-1.2c8.5-0.8,17-1.4,25.6-2c21.4-1.4,43-2,64.7-2c21.7,0,43.3,0.7,64.7,2
	c8.6,0.5,17.1,1.2,25.6,2c4.3,0.4,8.5,0.8,12.7,1.2c8.5,0.9,16.9,1.8,25.3,2.9c12.6,1.6,25.1,3.4,37.6,5.5
	c8.3,1.4,16.6,2.8,24.8,4.4c8.2,1.6,16.4,3.3,24.6,5c20.4,4.4,40.6,9.5,60.5,15.2c8,2.3,15.9,4.6,23.8,7.1c3.9,1.2,7.9,2.5,11.8,3.8
	c6.8,2.2,13.6,4.5,20.4,6.9c4.9,1.7,9.7,3.4,14.6,5.2c3.9,1.4,7.7,2.8,11.5,4.3c7.7,2.9,15.3,5.9,22.9,9c6.4,2.6,12.8,5.3,19.2,8.1
	c2.3,1,4.6,2,6.8,3c8.9,3.9,17.6,7.9,26.4,12.1c4.9,2.3,9.7,4.7,14.5,7.1c7.3,3.6,14.5,7.3,21.7,11.1c7.2,3.8,14.3,7.7,21.4,11.6
	c21.3,11.9,42,24.5,62.3,37.8c20.3,13.3,40,27.4,59.2,42.1c41.5,31.8,80.5,66.8,116.5,104.6c0.2,0.2,0.4,0.4,0.5,0.6
	c26.8,28.2,52,57.9,75.5,89c1.4,1.9,2.8,3.8,4.2,5.6c24.8,33.4,47.6,68.4,68.2,104.8c1.8,3.1,3.5,6.2,5.2,9.4
	c52.1,94.4,89.5,198,109.1,307.8c2.2,12.4,4.2,24.9,6,37.4c1.2,8.4,2.2,16.8,3.2,25.2c1,8.4,1.8,16.9,2.6,25.4
	c0.4,4.3,0.7,8.5,1.1,12.8c0.6,8.5,1.2,17.1,1.6,25.7C2229.7,1186,2230.1,1203.2,2230.1,1220.6z"/>
<circle class="st0" cx="1222.7" cy="1220.6" r="838.2"/>
<circle class="st1" cx="1222.7" cy="1220.6" r="663.8"/>
<circle class="st0" cx="1222.7" cy="1220.6" r="503.3"/>
<circle class="st1" cx="1222.7" cy="1223.4" r="351.2"/>
<circle class="st0" cx="1222.7" cy="1212.4" r="168.6"/>
<path class="st2" d="M1570.9,1269.8c-15.6,121-92.9,222.7-199.2,272.6l-251.8-195.4l0-0.1c28.4,21.9,64,34.9,102.7,34.9
	c93.1,0,168.6-75.5,168.6-168.6c0-53.9-25.3-101.8-64.6-132.7l0.1-0.2L1570.9,1269.8z"/>
<path class="st2" d="M1887.4,1221.5c0,355.4-279.3,645.6-630.4,662.9l-337.5-261.8c84.5,64.1,189.8,102.2,304.1,102.2
	c278,0,503.3-225.3,503.3-503.3c0-153.5-68.7-290.9-177-383.2l324.5,251.8C1882.9,1132.6,1887.4,1176.5,1887.4,1221.5z"/>
<path class="st2" d="M2230.1,1220.6c0,4.3,0,8.7-0.1,13c-0.2,13-0.6,26-1.2,38.8c-20.7,407.8-283.9,751.7-648.2,890.2
	c-3.8,1.5-7.7,2.9-11.5,4.3c-11.6,4.2-23.2,8.3-35,12.1c-3.9,1.3-7.9,2.5-11.8,3.8c-23.7,7.4-47.7,13.9-72.1,19.5
	c-8.1,1.9-16.3,3.7-24.5,5.3c-20.5,4.2-41.2,7.8-62.1,10.7c-4.2,0.6-8.4,1.1-12.6,1.7c-8.4,1.1-16.8,2-25.3,2.9
	c-4.2,0.4-8.5,0.8-12.7,1.2c-8.5,0.8-17,1.4-25.6,1.9c-21.4,1.3-43,2-64.7,2c-21.7,0-43.3-0.7-64.7-2c-3.2-0.2-6.5-0.4-9.7-0.7
	L690.2,1870l1-1.3c144.6,118.8,329.8,190.1,531.5,190.1c462.9,0,838.2-375.3,838.2-838.2c0-277.4-134.8-523.4-342.4-675.9l0.5-0.6
	l459.3,356.4c15.4,45.9,27.5,93.3,36.2,141.8c2.2,12.4,4.2,24.9,6,37.4c1.2,8.4,2.2,16.8,3.2,25.2c1,8.4,1.8,16.9,2.6,25.4
	c0.4,4.3,0.7,8.5,1.1,12.8c0.6,8.5,1.2,17.1,1.6,25.7C2229.7,1186,2230.1,1203.2,2230.1,1220.6z"/>
<path class="st3" d="M2317.5-67.7l0.3,194.5l192.4-1.2l-295.8,295.8l-149.9-3.7L1255,1227.1c-10.2,10.2-27,10.2-37.3,0l-2.1-2.1
	c-10.2-10.2-10.2-27,0-37.3l809.8-809.8l-4.8-148.8L2317.5-67.7z"/>
<g>
	<path class="st4" d="M2317.7,126.7l192.4-1.2l-295.8,295.8l-149.9-3.7L1255,1227.1c-10.2,10.2-27,10.2-37.3,0l-1.1-1.1L2317.7,125
		L2317.7,126.7z"/>
</g>
</svg>
